PathFileType	4	(x/y/z)	S04_PSF_T07.trc
DataRate	CameraRate	NumFrames	NumMarkers	Units	OrigDataRate	OrigDataStartFrame	OrigNumFrames
240	240	4	51	mm	240	54	427
Frame#	Time	Sternum			R.Acromium			L.Acromium			Top.Head			R.ASIS			L.ASIS			R.PSIS			L.PSIS			R.Great.Tro			L.Great.Tro			R.Iliac.Crest			L.Iliac.Crest			V.Sacral			R.Thigh.Upper.Post			R.Thigh.Lower.Ant			R.Thigh.Lower.Post			R.Thigh.Upper.Ant			R.Knee.Lat			R.Knee.Med			R.Shank.Upper.Post			R.Shank.Lower.Ant			R.Shank.Lower.Post			R.Shank.Upper.Ant			R.Ankle.Lat			R.Ankle.Med			R.Heel.Upper			R.Heel.Med			R.Heel.Lat			R.Toe.Lat			R.Toe.Med			R.Toe.Tip			L.Thigh.Upper.Post			L.Thigh.Lower.Ant			L.Thigh.Lower.Post			L.Thigh.Upper.Ant			L.Knee.Lat			L.Knee.Med			L.Shank.Upper.Post			L.Shank.Lower.Ant			L.Shank.Lower.Post			L.Shank.Upper.Ant			L.Ankle.Lat			L.Ankle.Med			L.Heel.Upper			L.Heel.Med			L.Heel.Lat			L.Toe.Lat			L.Toe.Med			L.Toe.Tip			Cervical.Spine			Back			
		X1	Y1	Z1	X2	Y2	Z2	X3	Y3	Z3	X4	Y4	Z4	X5	Y5	Z5	X6	Y6	Z6	X7	Y7	Z7	X8	Y8	Z8	X9	Y9	Z9	X10	Y10	Z10	X11	Y11	Z11	X12	Y12	Z12	X13	Y13	Z13	X14	Y14	Z14	X15	Y15	Z15	X16	Y16	Z16	X17	Y17	Z17	X18	Y18	Z18	X19	Y19	Z19	X20	Y20	Z20	X21	Y21	Z21	X22	Y22	Z22	X23	Y23	Z23	X24	Y24	Z24	X25	Y25	Z25	X26	Y26	Z26	X27	Y27	Z27	X28	Y28	Z28	X29	Y29	Z29	X30	Y30	Z30	X31	Y31	Z31	X32	Y32	Z32	X33	Y33	Z33	X34	Y34	Z34	X35	Y35	Z35	X36	Y36	Z36	X37	Y37	Z37	X38	Y38	Z38	X39	Y39	Z39	X40	Y40	Z40	X41	Y41	Z41	X42	Y42	Z42	X43	Y43	Z43	X44	Y44	Z44	X45	Y45	Z45	X46	Y46	Z46	X47	Y47	Z47	X48	Y48	Z48	X49	Y49	Z49	X50	Y50	Z50	X51	Y51	Z51	

54	0.22083	-1157.5	1273.4	245.34	-1283.4	1502.6	423.2	-1308.7	1481.5	73.918	-1267	1827.2	226.66	-1187.8	982.71	393.81	-1175.6	1012	144.28	NaN	NaN	NaN	NaN	NaN	NaN	-1289.6	900.1	448.89	-1283.3	924.97	72.741	-1279.9	1082.5	433.04	-1284.6	1086.4	97.038	-1418.1	988.07	242.92	-1268.7	639.65	438.05	-1184.8	560.96	417.71	-1261.5	549.65	424.3	-1185.4	671.01	435.98	-1248.3	482.86	417.53	-1246.6	482.54	286.87	-1457	393.52	397.61	-1474.7	289.48	364.67	-1515.3	351.55	382.57	-1423.1	335.79	388.03	-1598.8	274.32	359.78	-1559.8	254.71	278.67	-1650	305.32	294.79	-1657.1	281.25	261.61	-1680.8	289.77	324.38	-1607.9	143.29	395.79	-1560.7	106.54	288.54	-1503.6	76.811	341.89	-1246.9	684.16	88.63	-1146.9	609.61	101.89	-1219.5	601.07	107.34	-1179.8	691.74	81.648	-1159.7	516.28	120.35	-1161.8	510.06	243.29	-1230.4	334.26	119.12	-1161.6	249.49	131.71	-1225.6	255.25	132.4	-1170.7	324.73	121.06	-1184.8	98.739	153.9	-1180.4	110.56	245.39	-1259.1	70.428	198.23	-1252	46.335	232.81	-1254	42.007	171.52	-1069.1	42.598	137.73	-1041.2	50.621	254.22	-982.39	62.197	206.77	-1343.4	1546.7	254.42	-1425.5	1288.2	247.42
55	0.225	-1152.3	1274.4	245.39	-1277.8	1503.4	422.98	-1303	1482.4	73.734	-1261.7	1828	226.64	-1182.5	983.81	393.55	-1170.4	1012.8	143.97	NaN	NaN	NaN	NaN	NaN	NaN	-1283.6	901.05	448.76	-1278.5	925.69	72.673	-1274.6	1083.4	432.84	-1279.3	1087.3	96.878	-1412.9	988.95	242.92	-1259.7	640.68	438.17	-1175.1	563.04	417.74	-1251.4	550.75	424.43	-1176.9	673.08	436.02	-1237.5	484.28	417.55	-1235.9	483.99	286.91	-1445.8	394.15	397.39	-1463	289.95	364.84	-1503.8	351.85	382.42	-1411.7	336.48	388.12	-1586.9	274.22	359.68	-1548	254.52	278.67	-1638.4	304.29	294.54	-1645.2	280.04	261.35	-1669.3	288.5	324.13	-1595	143.55	396.56	-1547.5	106.4	289.51	-1488.7	78.234	342.82	-1243.6	684.76	88.633	-1144.3	609.47	101.84	-1217	601.49	107.28	-1176.6	691.86	81.661	-1157.7	516.19	120.36	-1159.9	510.01	243.28	-1229	334.66	118.99	-1161	249.42	131.75	-1224.7	255.51	132.51	-1169.7	324.7	121.12	-1184.7	98.878	154.09	-1180.3	110.59	245.58	-1259	70.488	198.36	-1252	46.376	232.86	-1254	42.16	171.57	-1069	42.598	137.7	-1041.1	50.368	254.25	-982.32	61.876	206.75	-1337.7	1547.6	254.15	-1420.2	1289.1	246.95
56	0.22917	-1147.1	1275.3	245.44	-1272.3	1504.1	422.76	-1297.4	1483.3	73.562	-1256.4	1828.9	226.63	-1177.2	984.91	393.29	-1165.3	1013.7	143.67	NaN	NaN	NaN	NaN	NaN	NaN	-1277.6	902.04	448.65	-1273.7	926.4	72.617	-1269.4	1084.4	432.65	-1274	1088.1	96.722	-1407.7	989.84	242.94	-1250.8	641.78	438.31	-1165.4	565.17	417.74	-1241.4	551.93	424.58	-1168.5	675.19	436.06	-1226.8	485.76	417.57	-1225.3	485.52	286.96	-1434.7	394.61	397.2	-1451.1	290.23	365.04	-1492.2	351.91	382.3	-1400.2	337.08	388.22	-1574.9	273.77	359.64	-1535.9	254.08	278.69	-1626.7	302.89	294.38	-1633.2	278.43	261.2	-1657.6	286.81	323.98	-1581.8	143.44	397.29	-1534	106.04	290.39	-1473.5	79.387	343.67	-1240.4	685.36	88.648	-1141.7	609.32	101.8	-1214.4	601.93	107.22	-1173.4	691.97	81.681	-1155.9	516.12	120.37	-1158	509.97	243.29	-1227.6	335.05	118.88	-1160.3	249.37	131.79	-1223.9	255.77	132.63	-1168.9	324.68	121.18	-1184.6	99.017	154.28	-1180.2	110.62	245.76	-1258.9	70.547	198.48	-1252	46.422	232.9	-1253.9	42.319	171.62	-1069	42.598	137.68	-1041	50.124	254.29	-982.25	61.568	206.73	-1332	1548.4	253.9	-1414.9	1290	246.47
57	0.23333	-1142	1276.2	245.48	-1266.8	1504.9	422.55	-1291.7	1484.3	73.4	-1251.1	1829.7	226.65	-1171.9	986.02	393.03	-1160.2	1014.5	143.36	NaN	NaN	NaN	NaN	NaN	NaN	-1271.6	903.04	448.55	-1269	927.11	72.571	-1264.1	1085.4	432.47	-1268.7	1089	96.571	-1402.5	990.74	242.99	-1242	642.93	438.47	-1155.8	567.37	417.72	-1231.5	553.19	424.74	-1160.1	677.35	436.08	-1216.1	487.31	417.59	-1214.8	487.11	287.01	-1423.5	394.9	397.05	-1439.2	290.33	365.26	-1480.5	351.73	382.19	-1388.6	337.56	388.34	-1562.6	272.99	359.65	-1523.8	253.4	278.74	-1615	301.12	294.3	-1621.3	276.43	261.15	-1645.8	284.72	323.92	-1568.2	142.97	397.98	-1520.1	105.48	291.19	-1458.1	80.237	344.46	-1237.2	685.97	88.676	-1139.2	609.18	101.76	-1212	602.37	107.15	-1170.3	692.08	81.704	-1154.1	516.05	120.39	-1156.3	509.92	243.31	-1226.3	335.41	118.78	-1159.7	249.33	131.83	-1223.1	256.03	132.74	-1168	324.68	121.24	-1184.5	99.157	154.47	-1180	110.65	245.95	-1258.8	70.606	198.61	-1251.9	46.47	232.95	-1253.9	42.482	171.67	-1068.9	42.598	137.66	-1040.9	49.887	254.32	-982.19	61.271	206.71	-1326.4	1549.2	253.65	-1409.7	1290.9	246
